<?xml version="1.0" encoding="UTF-8"?><svg id="uuid-b08a6ba9-6e2a-4e94-bff3-375594dcb7fb" xmlns="http://www.w3.org/2000/svg" viewBox="0 0 448 448"><g id="uuid-238a6533-36c9-42b3-aad9-d9e4374be6a7"><path d="M416,0H31.9C14.3,0,0,14.5,0,32.3v383.4c0,17.8,14.3,32.3,31.9,32.3h384.1c17.6,0,32-14.5,32-32.3V32.3C448,14.5,433.6,0,416,0ZM135.4,384h-66.4v-213.8h66.5v213.8h-.1ZM102.2,141c-21.3,0-38.5-17.3-38.5-38.5s17.2-38.5,38.5-38.5,38.5,17.3,38.5,38.5-17.2,38.5-38.5,38.5ZM384.3,384h-66.4v-104c0-24.8-.5-56.7-34.5-56.7-34.6,0-39.9,27-39.9,54.9v105.8h-66.4v-213.8h63.7v29.2h.9c8.9-16.8,30.6-34.5,62.9-34.5,67.2,0,79.7,44.3,79.7,101.9v117.2Z" fill="#fff" stroke-width="0"/></g></svg>